:SAMPLES-PER-SECOND 30
:FULLY-SPECIFIED
:DEGREES
948
root  -64.7107 40.5532 9.41578 -175.262 -74.3279 173.055
RightUpLeg  -3.34275 -8.53744 -4.5487
RightLeg  11.6263 11.8931 1.34822
RightFoot  -7.07779 -0.109381 1.64594
RightToes  -2.32831e-009 0 -3.6325e-017
Spine  2.24171 0.732781 5.66153
Spine1  5.79952 1.33854 -1.05762
HEad  -19.2665 -23.4734 1.98818
LeftShoulder1  -0.787494 5.53359 -32.6332
LeftArm  0.657304 10.6601 -43.2005
LeftForeArm  36.2631 -13.8007 -7.22112
LeftHand  -0.301292 10.6738 -5.08951
RightShoulder  -1.24243 -6.90253 30.0561
RightArm  18.2171 3.06806 38.0785
RightForeArm  9.8906 23.0025 4.43655
RightHand  -0.00236436 7.24998 -0.387768
LeftUpLeg  -7.12372 3.58853 2.21608
LeftLeg  21.9141 7.29911 3.54554
LeftFoot  -9.41103 0.0635394 -0.395527
LeftToes  8.91272e-011 -1.70619e-011 7.36378e-012
949
root  -64.7573 40.5942 9.3149 -172.471 -74.3482 171.022
RightUpLeg  -4.08138 -8.72566 -4.91266
RightLeg  11.5362 11.9429 1.37331
RightFoot  -7.08786 -0.103816 1.49821
RightToes  -2.32831e-009 0 -3.6325e-017
Spine  1.23458 1.08071 5.87885
Spine1  6.31495 1.77951 -1.76988
HEad  -19.5967 -24.3896 1.98387
LeftShoulder1  -0.814066 5.59261 -32.8085
LeftArm  -0.0053858 13.2199 -42.2028
LeftForeArm  36.1758 -13.7009 -7.12955
LeftHand  -0.239161 9.86719 -4.57251
RightShoulder  -1.23902 -6.90595 29.9154
RightArm  17.1385 2.90318 37.4122
RightForeArm  7.80557 22.8082 4.51896
RightHand  0.0311376 7.98781 -0.104206
LeftUpLeg  -7.73739 0.657608 -0.359127
LeftLeg  20.0947 5.73865 2.64307
LeftFoot  -10.1217 0.0586987 0.087386
LeftToes  8.91272e-011 -1.70619e-011 7.36378e-012
950
root  -64.7831 40.6102 9.23779 -172.767 -74.6803 171.568
RightUpLeg  -3.97671 -8.53963 -4.59817
RightLeg  11.0718 11.4247 1.26178
RightFoot  -7.05203 -0.105566 1.5501
RightToes  -2.32831e-009 0 -3.6325e-017
Spine  1.34145 1.20384 6.41429
Spine1  6.19831 1.95465 -2.23604
HEad  -19.7871 -25.3417 2.22072
LeftShoulder1  -0.841447 5.68042 -32.4956
LeftArm  -1.28626 15.9818 -41.8991
LeftForeArm  36.1378 -13.6951 -6.85419
LeftHand  -0.227843 9.78237 -4.37662
RightShoulder  -1.30767 -7.04701 30.4151
RightArm  17.9441 3.12569 36.3685
RightForeArm  5.2926 22.3092 4.60458
RightHand  0.0064871 8.12733 -0.323996
LeftUpLeg  -7.57412 -3.18075 -2.01404
LeftLeg  17.3862 2.99111 1.3886
LeftFoot  -10.7846 0.075453 -0.854248
LeftToes  8.91272e-011 -1.70619e-011 7.36378e-012
951
root  -64.8699 40.6368 9.17067 -173.009 -74.7473 172.212
RightUpLeg  -3.87919 -8.456 -4.38449
RightLeg  10.4264 11.3545 1.28797
RightFoot  -6.90753 -0.0992214 1.40813
RightToes  -2.32831e-009 0 -3.6325e-017
Spine  0.610017 1.57801 6.69265
Spine1  6.69747 2.32119 -2.47416
HEad  -19.2387 -26.0535 2.42971
LeftShoulder1  -0.866639 5.76189 -32.2132
LeftArm  -3.4657 18.221 -41.9356
LeftForeArm  36.8672 -13.5244 -6.45207
LeftHand  -0.328027 10.6817 -5.61822
RightShoulder  -1.33281 -7.0863 30.7122
RightArm  18.0222 2.85148 35.8399
RightForeArm  5.22804 21.4256 4.57808
RightHand  0.0217446 8.46837 -0.202964
LeftUpLeg  -6.89649 -6.08844 -3.66222
LeftLeg  13.3082 -0.579724 0.692965
LeftFoot  -9.3109 0.026689 -0.211083
LeftToes  8.91272e-011 -1.70619e-011 7.36378e-012
952
root  -64.9352 40.7176 9.07325 -173.079 -74.8732 172.848
RightUpLeg  -3.63135 -8.13833 -4.04589
RightLeg  9.01314 10.8866 1.09027
RightFoot  -6.29042 -0.103989 1.42283
RightToes  -2.32831e-009 0 -3.6325e-017
Spine  0.029865 1.9698 5.69044
Spine1  6.56756 2.41591 -1.55569
HEad  -18.4534 -26.7591 2.51254
LeftShoulder1  -0.882559 5.78629 -32.4959
LeftArm  -4.46959 20.2764 -41.3648
LeftForeArm  37.0234 -13.5809 -6.14876
LeftHand  -0.427634 11.0741 -7.17952
RightShoulder  -1.33908 -7.09082 30.8399
RightArm  18.2668 2.42901 35.6146
RightForeArm  5.74546 19.9625 4.6816
RightHand  0.0201649 8.58751 -0.218702
LeftUpLeg  -6.6743 -6.43826 -5.16321
LeftLeg  10.3137 -5.19911 1.01598
LeftFoot  -4.73873 -0.275942 5.47736
LeftToes  8.91272e-011 -1.70619e-011 7.36378e-012
953
root  -64.9759 40.7271 8.97817 -174.756 -75.3382 174.669
RightUpLeg  -3.21193 -7.59258 -3.28076
RightLeg  8.28232 9.84279 0.742013
RightFoot  -6.1373 -0.109125 1.46409
RightToes  -2.32831e-009 0 -3.6325e-017
Spine  0.0376658 1.97119 4.87573
Spine1  6.45768 2.1821 -0.548144
HEad  -18.1282 -26.9993 2.86913
LeftShoulder1  -0.955009 5.95661 -32.7626
LeftArm  -5.18998 21.5311 -40.7001
LeftForeArm  36.7418 -13.5491 -5.96283
LeftHand  -0.437743 11.2328 -7.14809
RightShoulder  -1.33974 -7.07277 31.0423
RightArm  17.3001 2.34993 36.3161
RightForeArm  6.73725 17.2926 5.0948
RightHand  -0.01948 8.78595 -0.550848
LeftUpLeg  -6.62173 -8.10428 -5.09945
LeftLeg  10.2209 -4.66786 1.86158
LeftFoot  -2.95867 -0.500043 7.10893
LeftToes  8.91272e-011 -1.70619e-011 7.36378e-012
954
root  -64.9809 40.7289 8.84156 -175.33 -75.8161 175.47
RightUpLeg  -3.24054 -7.09841 -2.66096
RightLeg  8.11687 8.78332 0.421147
RightFoot  -6.19585 -0.114388 1.52338
RightToes  -2.32831e-009 0 -3.6325e-017
Spine  -0.129939 2.07726 3.56621
Spine1  6.57777 2.0631 0.546507
HEad  -18.0269 -27.7813 3.99267
LeftShoulder1  -0.973648 5.98173 -33.1178
LeftArm  -4.16359 21.2282 -39.3771
LeftForeArm  36.1125 -12.9428 -6.43433
LeftHand  -0.46289 11.6503 -7.0856
RightShoulder  -1.36772 -7.13108 31.2084
RightArm  14.1561 1.63897 37.8201
RightForeArm  8.91746 14.4582 5.38036
RightHand  -0.0350576 8.18294 -0.67502
LeftUpLeg  -6.74069 -5.51766 -4.1163
LeftLeg  9.93761 -7.84343 0.822099
LeftFoot  -3.14936 -0.388116 5.68464
LeftToes  8.91272e-011 -1.70619e-011 7.36378e-012
955
root  -65.0105 40.778 8.72664 -174.28 -75.7435 173.847
RightUpLeg  -2.47995 -7.11522 -2.90283
RightLeg  7.88826 8.85981 0.200147
RightFoot  -6.14511 -0.102214 1.31757
RightToes  -2.32831e-009 0 -3.6325e-017
Spine  0.0720784 2.257 1.84069
Spine1  7.42593 2.16914 1.16801
HEad  -18.3376 -28.1846 5.04436
LeftShoulder1  -0.990501 5.97681 -33.864
LeftArm  -4.02841 20.317 -38.0963
LeftForeArm  36.5061 -13.088 -6.34885
LeftHand  -0.427311 10.9114 -7.32777
RightShoulder  -1.28414 -6.96602 30.5966
RightArm  10.4471 0.298186 40.5987
RightForeArm  11.06 12.0411 5.17657
RightHand  -0.0118564 7.38718 -0.469205
LeftUpLeg  -5.32104 -1.4769 -3.92956
LeftLeg  8.27005 -11.8004 -0.0437082
LeftFoot  -2.82226 -0.324298 4.57973
LeftToes  8.91272e-011 -1.70619e-011 7.36378e-012
956
root  -65.0748 40.8414 8.64155 -173.811 -75.1489 172.902
RightUpLeg  -1.62769 -7.01131 -3.08265
RightLeg  7.21296 9.222 -0.00953045
RightFoot  -5.86583 -0.0888408 1.0978
RightToes  -2.32831e-009 0 -3.6325e-017
Spine  0.087607 2.56084 1.49924
Spine1  8.25983 2.79703 -0.0643661
HEad  -18.4591 -28.4347 5.69935
LeftShoulder1  -1.04785 6.07738 -34.5124
LeftArm  -1.73623 18.9023 -36.2846
LeftForeArm  35.136 -13.9163 -6.47446
LeftHand  -0.537843 12.0221 -7.75334
RightShoulder  -1.26054 -6.90712 30.5256
RightArm  9.03355 -1.14037 43.1997
RightForeArm  11.6545 10.2898 5.15218
RightHand  -0.0507704 7.71786 -0.817717
LeftUpLeg  -3.83127 0.323684 -4.04368
LeftLeg  6.4852 -12.9958 0.0831592
LeftFoot  -2.04154 -0.364389 4.62346
LeftToes  8.91272e-011 -1.70619e-011 7.36378e-012
957
root  -65.1419 40.9002 8.58392 -173.225 -74.2764 172.255
RightUpLeg  -1.23041 -6.81767 -3.20246
RightLeg  6.46076 9.75077 -0.239193
RightFoot  -5.5743 -0.0862905 1.04981
RightToes  -2.32831e-009 0 -3.6325e-017
Spine  -0.225358 2.8665 1.59165
Spine1  8.66676 3.47867 -1.57602
HEad  -18.4449 -28.8601 5.63546
LeftShoulder1  -1.0961 6.14666 -35.2614
LeftArm  -1.32524 17.7425 -34.9133
LeftForeArm  33.8907 -14.7592 -6.12314
LeftHand  -0.276863 10.135 -5.26427
RightShoulder  -1.14656 -6.66758 29.7388
RightArm  9.9973 -2.93177 45.8006
RightForeArm  13.473 10.0843 5.48825
RightHand  0.0307889 7.22298 -0.077972
LeftUpLeg  -2.82382 0.95506 -4.36945
LeftLeg  4.75585 -12.7309 0.667483
LeftFoot  -1.1551 -0.427265 4.87245
LeftToes  8.91272e-011 -1.70619e-011 7.36378e-012
